<svg id="Layer_1" data-name="Layer 1" xmlns="http://www.w3.org/2000/svg" viewBox="0 0 600 400"><defs><style>.cls-1{fill:#fff;}.cls-2{fill:#9e1f63;}.cls-3{fill:#006838;}</style></defs><path class="cls-1" d="M392.74,304.17h-600v-400h600ZM156.82,110.75c10.3-3.38,16.75-10.26,20.75-19.68,5.73-13.49,1.21-29.61-10.95-39.28-11-8.77-28-9.09-39.55-.92-10.18,7.22-14.21,17.26-15,29.38-.77,11.83-9.8,18.19-18.92,18.1-11.93-.12-18.85-8.47-20-18.38-.6-5.35-1.38-11-3.58-15.8a33.16,33.16,0,0,0-40.4-17.74A34.17,34.17,0,0,0,5.88,84.21c1.91,12.32,12,23.91,22.79,26.19l7.08-12.11c-1.21-.53-2.21-1.05-3.26-1.44C23.65,93.61,18,84.33,19.91,75.62c2.4-11.15,10.45-16.37,20.2-16.42s17.81,8.41,18.68,18a64.7,64.7,0,0,0,1.87,11.7c5,18,27.08,30,46.53,20.38,13-6.4,19.1-17.3,19.54-31.63.36-11.58,10.66-19.64,22.79-18,10.42,1.38,17.82,12.2,15.69,22.68-1.78,8.76-7.28,13.7-15.73,15.73Zm-72,10.9c2,11.15-4.2,17.06-12.08,22.37-9.14,6.16-13.79,15.27-13.93,26.12-.17,13.08,5.56,23.59,17,30.1,12,6.83,24.35,6.17,35.92-1.22,12.66-8.1,17.56-25.86,13.68-34.47H111.6c.11,1.21.23,2.51.37,3.79,1.13,10.48-4.76,19.23-14.73,21.84-8.23,2.17-18.33-2.66-22.16-10.58-4.19-8.64-1.39-19.85,7.18-24.93,14.17-8.38,18.32-21.21,17.92-37.72Zm11.47,29.54c9.8,5.52,19.66,9.4,30.68,6.77,11.22-2.68,19.43-9.52,23.55-20.21,6.61-17.19,1.38-34.53-19.9-45.7L123,105.11c15.21,8.14,19.72,18,13.48,29.44-5.94,10.84-17.09,12-32.43,3.53ZM54.59,91.72C31.5,105.9,30.56,119,33.34,133.46c2.25,11.72,13.81,22.47,22.25,22.72,2.28-3.69,4.59-7.41,7.1-11.48-9.46-3.66-16-9-16-20s6.92-16,15.86-19.49C59.76,100.53,57.28,96.3,54.59,91.72ZM87.2,40.25h13c2.15-15.5-16.71-35.82-36.06-34.17V18.77C76.1,21.19,84.94,26.9,87.2,40.25Zm20.89,25.49,6.92-12C102.85,42,83.13,42.05,70.56,53.66l6.91,12.49C87.65,56.84,97.83,57.57,108.09,65.74Z" transform="translate(207.26 95.83)"/><path class="cls-2" d="M156.82,110.75l-7.34-12.7c8.45-2,14-7,15.73-15.73,2.13-10.48-5.27-21.3-15.69-22.68-12.13-1.59-22.43,6.47-22.79,18-.44,14.33-6.53,25.23-19.54,31.63-19.45,9.57-41.5-2.4-46.53-20.38a64.7,64.7,0,0,1-1.87-11.7c-.87-9.63-9-18.08-18.68-18s-17.8,5.27-20.2,16.42c-1.88,8.71,3.74,18,12.58,21.23,1,.39,2,.91,3.26,1.44L28.67,110.4C17.85,108.12,7.79,96.53,5.88,84.21A34.17,34.17,0,0,1,29.21,46.43a33.16,33.16,0,0,1,40.4,17.74c2.2,4.82,3,10.45,3.58,15.8,1.11,9.91,8,18.26,20,18.38,9.12.09,18.15-6.27,18.92-18.1.79-12.12,4.82-22.16,15-29.38,11.51-8.17,28.52-7.85,39.55.92,12.16,9.67,16.68,25.79,10.95,39.28C173.57,100.49,167.12,107.37,156.82,110.75Z" transform="translate(207.26 95.83)"/><path class="cls-2" d="M84.86,121.65l15.32-4.7c.4,16.51-3.75,29.34-17.92,37.72-8.57,5.08-11.37,16.29-7.18,24.93,3.83,7.92,13.93,12.75,22.16,10.58,10-2.61,15.86-11.36,14.73-21.84-.14-1.28-.26-2.58-.37-3.79h13.83c3.88,8.61-1,26.37-13.68,34.47-11.57,7.39-24,8-35.92,1.22-11.42-6.51-17.15-17-17-30.1.14-10.85,4.79-20,13.93-26.12C80.66,138.71,86.91,132.8,84.86,121.65Z" transform="translate(207.26 95.83)"/><path class="cls-2" d="M96.33,151.19l7.72-13.11c15.34,8.52,26.49,7.31,32.43-3.53,6.24-11.4,1.73-21.3-13.48-29.44l7.66-13.06c21.28,11.17,26.51,28.51,19.9,45.7C146.44,148.44,138.23,155.28,127,158,116,160.59,106.13,156.71,96.33,151.19Z" transform="translate(207.26 95.83)"/><path class="cls-2" d="M54.59,91.72c2.69,4.58,5.17,8.81,7.95,13.53-8.94,3.49-15.83,8.59-15.86,19.49s6.55,16.3,16,20c-2.51,4.07-4.82,7.79-7.1,11.48-8.44-.25-20-11-22.25-22.72C30.56,119,31.5,105.9,54.59,91.72Z" transform="translate(207.26 95.83)"/><path class="cls-3" d="M87.2,40.25c-2.26-13.35-11.1-19.06-23-21.48V6.08c19.35-1.65,38.21,18.67,36.06,34.17Z" transform="translate(207.26 95.83)"/><path class="cls-2" d="M108.09,65.74c-10.26-8.17-20.44-8.9-30.62.41L70.56,53.66C83.13,42.05,102.85,42,115,53.73Z" transform="translate(207.26 95.83)"/></svg>

